HIERARCHY
ROOT Hips
{
	OFFSET	0.00	0.00	0.00
	CHANNELS 6 Xposition Yposition Zposition Zrotation Xrotation Yrotation
	JOINT LeftUpLeg
	{
		OFFSET	 0.126116	-0.065224	 0.014019
		CHANNELS 3 Zrotation Xrotation Yrotation
		JOINT LeftLeg
		{
			OFFSET	 0.000000	 0.569914	 0.000000
			CHANNELS 3 Zrotation Xrotation Yrotation
			JOINT LeftFoot
			{
				OFFSET	 0.000000	 0.544423	 0.000000
				CHANNELS 3 Zrotation Xrotation Yrotation
				JOINT LeftToeBase
				{
					OFFSET	 0.000000	 0.207117	 0.000000
					CHANNELS 3 Zrotation Xrotation Yrotation
					End Site
					{
						OFFSET	 0.000000	 0.207117	 0.000000
					}
				}
			}
		}
	}
	JOINT RightUpLeg
	{
		OFFSET	-0.124023	-0.065224	 0.008373
		CHANNELS 3 Zrotation Xrotation Yrotation
		JOINT RightLeg
		{
			OFFSET	 0.000000	 0.570047	 0.000000
			CHANNELS 3 Zrotation Xrotation Yrotation
			JOINT RightFoot
			{
				OFFSET	 0.000000	 0.544354	 0.000000
				CHANNELS 3 Zrotation Xrotation Yrotation
				JOINT RightToeBase
				{
					OFFSET	 0.000000	 0.207540	 0.000000
					CHANNELS 3 Zrotation Xrotation Yrotation
					End Site
					{
						OFFSET	 0.000000	 0.207540	 0.000000
					}
				}
			}
		}
	}
	JOINT Spine
	{
		OFFSET	 0.000184	 0.117403	 0.007763
		CHANNELS 3 Zrotation Xrotation Yrotation
		JOINT Spine1
		{
			OFFSET	 0.000000	 0.137269	 0.000000
			CHANNELS 3 Zrotation Xrotation Yrotation
			JOINT Spine2
			{
				OFFSET	 0.000000	 0.156879	 0.000000
				CHANNELS 3 Zrotation Xrotation Yrotation
				JOINT LeftShoulder
				{
					OFFSET	 0.080501	 0.160143	 0.002496
					CHANNELS 3 Zrotation Xrotation Yrotation
					JOINT LeftArm
					{
						OFFSET	 0.000000	 0.164363	 0.000000
						CHANNELS 3 Zrotation Xrotation Yrotation
						JOINT LeftForeArm
						{
							OFFSET	 0.000000	 0.364576	 0.000000
							CHANNELS 3 Zrotation Xrotation Yrotation
							JOINT LeftHand
							{
								OFFSET	 0.000000	 0.360812	 0.000000
								CHANNELS 3 Zrotation Xrotation Yrotation
								JOINT LeftHandIndex1
								{
									OFFSET	 0.000000	 0.086006	 0.000000
									CHANNELS 3 Zrotation Xrotation Yrotation
									JOINT LeftHandIndex2
									{
										OFFSET	 0.000000	 0.047237	 0.000000
										CHANNELS 3 Zrotation Xrotation Yrotation
										JOINT LeftHandIndex3
										{
											OFFSET	-0.004284	 0.038165	 0.000551
											CHANNELS 3 Zrotation Xrotation Yrotation
											End Site
											{
												OFFSET	-0.004284	 0.038165	 0.000551
											}
										}
									}
								}
							}
						}
					}
				}
				JOINT Neck
				{
					OFFSET	 0.000000	 0.176489	 0.000000
					CHANNELS 3 Zrotation Xrotation Yrotation
					JOINT Head
					{
						OFFSET	 0.000000	 0.077941	 0.001747
						CHANNELS 3 Zrotation Xrotation Yrotation
						End Site
						{
							OFFSET	 0.000000	 0.077941	 0.001747
						}
					}
				}
				JOINT RightShoulder
				{
					OFFSET	-0.080363	 0.159706	-0.000306
					CHANNELS 3 Zrotation Xrotation Yrotation
					JOINT RightArm
					{
						OFFSET	 0.000000	 0.164196	 0.000000
						CHANNELS 3 Zrotation Xrotation Yrotation
						JOINT RightForeArm
						{
							OFFSET	 0.000000	 0.365611	 0.000000
							CHANNELS 3 Zrotation Xrotation Yrotation
							JOINT RightHand
							{
								OFFSET	 0.000000	 0.360648	 0.000000
								CHANNELS 3 Zrotation Xrotation Yrotation
								JOINT RightHandIndex1
								{
									OFFSET	 0.000000	 0.069977	 0.000000
									CHANNELS 3 Zrotation Xrotation Yrotation
									JOINT RightHandIndex2
									{
										OFFSET	 0.000000	 0.052305	 0.000000
										CHANNELS 3 Zrotation Xrotation Yrotation
										JOINT RightHandIndex3
										{
											OFFSET	 0.009002	 0.042196	 0.000782
											CHANNELS 3 Zrotation Xrotation Yrotation
											End Site
											{
												OFFSET	 0.009002	 0.042196	 0.000782
											}
										}
									}
								}
							}
						}
					}
				}
			}
		}
	}
}
MOTION
Frames:    11
Frame Time: 0.03333334
-0.017666	 1.255313	 0.114997	 4.866567	 0.308705	 173.965500	 175.205700	 15.468010	 37.538650	 3.141562	-30.727100	 1.450140	 53.530400	 49.010560	-69.621800	 4.912824	 28.009660	-6.307255	-165.474500	-2.257076	-30.294750	-0.495864	-5.734283	 2.128396	-51.059970	 50.294840	 49.040840	-0.377696	 31.173130	 1.634232	 1.391501	 3.838931	-14.766470	 9.345097	 9.746734	-8.101593	-7.911965	-7.805387	 25.457060	-112.560000	 3.124115	 88.313610	-11.623210	 51.296890	 36.575090	 31.586250	-1.581335	 1.000685	-26.651990	-5.523652	-95.762250	-8.010683	 12.514770	-5.834840	-7.228769	 12.662830	 2.803850	 4.963066	-4.014628	-0.346955	 1.514972	-13.909860	 1.354748	-2.407499	 8.096156	-17.195180	 109.121600	 0.677721	-88.596760	-13.880450	 69.021560	 13.236690	-5.095219	-0.477270	 41.378250	-14.167390	 15.660250	-102.830900	 2.009248	 8.291673	 8.960535	 15.202910	 20.250760	-6.344678	-8.239867	-2.131385	 0.447455
-0.017934	 1.255243	 0.114901	 4.929002	 0.280094	 174.009800	 175.222700	 15.522330	 37.590030	 3.151250	-30.804550	 1.474256	 53.564300	 49.018670	-69.670140	 4.912825	 28.009670	-6.307248	-165.450000	-2.276603	-30.247610	-0.486686	-5.628890	 2.081792	-51.048700	 50.242750	 49.032710	-0.381659	 31.177980	 1.638162	 1.420397	 3.793444	-14.746930	 9.708797	 9.947999	-8.184470	-8.311321	-8.131179	 25.393880	-112.537400	 3.095899	 88.309710	-11.877130	 51.047210	 36.796820	 31.897620	-1.594021	 0.982723	-26.257980	-5.505616	-95.674710	-7.984726	 12.536050	-5.841267	-7.228887	 12.657900	 2.803176	 4.963066	-4.014628	-0.346955	 1.491717	-13.874530	 1.366637	-2.410646	 8.071857	-17.333260	 109.093400	 0.699234	-88.607670	-13.712560	 69.211070	 13.150230	-5.107092	-0.489492	 41.334540	-14.724700	 15.702480	-102.815100	 1.986909	 8.231414	 8.959994	 15.203000	 20.264130	-6.348336	-8.239867	-2.131385	 0.447455
-0.018211	 1.255142	 0.114777	 4.985445	 0.246852	 174.064200	 175.228400	 15.584540	 37.652820	 3.161753	-30.888470	 1.502630	 53.601540	 49.025750	-69.724320	 4.912827	 28.009680	-6.307240	-165.406400	-2.255991	-30.191010	-0.485191	-5.611647	 2.025135	-51.083590	 50.213550	 49.092560	-0.386448	 31.183830	 1.642912	 1.449456	 3.750443	-14.731760	 10.047600	 10.127410	-8.265876	-8.685983	-8.434089	 25.333200	-112.510200	 3.061801	 88.305050	-12.190780	 50.878960	 36.789010	 32.192830	-1.605735	 0.958826	-25.849840	-5.544837	-95.271760	-7.953354	 12.561760	-5.849048	-7.229030	 12.651930	 2.802362	 4.963066	-4.014628	-0.346955	 1.463609	-13.831830	 1.381022	-2.410115	 8.074417	-17.512680	 109.059400	 0.725225	-88.620830	-13.524410	 69.392870	 13.063980	-5.120341	-0.504207	 41.281960	-15.245910	 15.738960	-102.819600	 1.959917	 8.158595	 8.959310	 15.203110	 20.280280	-6.352757	-8.239867	-2.131385	 0.447455
-0.018475	 1.255021	 0.114639	 5.031617	 0.212192	 174.121900	 175.223200	 15.648510	 37.719860	 3.172182	-30.971640	 1.532156	 53.639340	 49.031450	-69.780040	 4.912828	 28.009690	-6.307231	-165.349000	-2.200272	-30.130820	-0.490887	-5.677018	 1.965259	-51.156140	 50.209500	 49.207290	-0.391509	 31.190010	 1.647931	 1.475553	 3.712588	-14.720790	 10.334440	 10.274420	-8.337852	-9.005479	-8.691424	 25.280470	-112.481400	 3.025787	 88.300130	-12.440470	 50.713180	 36.865090	 32.446880	-1.615466	 0.932077	-25.504840	-5.565486	-94.990760	-7.920200	 12.588920	-5.857284	-7.229181	 12.645620	 2.801501	 4.963066	-4.014628	-0.346955	 1.433908	-13.786730	 1.396240	-2.406500	 8.100246	-17.710930	 109.023400	 0.752716	-88.634730	-13.326540	 69.551480	 12.976850	-5.137029	-0.519861	 41.226230	-15.689430	 15.767500	-102.838900	 1.931405	 8.081664	 8.958547	 15.203220	 20.297350	-6.357428	-8.239867	-2.131385	 0.447455
-0.018782	 1.254848	 0.114451	 5.077319	 0.169155	 174.195900	 175.205300	 15.727690	 37.805810	 3.184921	-31.072850	 1.569152	 53.686210	 49.037740	-69.849560	 4.912830	 28.009700	-6.307220	-165.263300	-2.094444	-30.054840	-0.505805	-5.848360	 1.889641	-51.287390	 50.232050	 49.409110	-0.397927	 31.197850	 1.654296	 1.503528	 3.672171	-14.711530	 10.631350	 10.420980	-8.415309	-9.338373	-8.958643	 25.224500	-112.445000	 2.980107	 88.293930	-12.715010	 50.544800	 36.936780	 32.714040	-1.625378	 0.896580	-25.132130	-5.596454	-94.634400	-7.878155	 12.623350	-5.867753	-7.229372	 12.637630	 2.800410	 4.963066	-4.014628	-0.346955	 1.396239	-13.729570	 1.415566	-2.398961	 8.155752	-17.970580	 108.977900	 0.787584	-88.652370	-13.074740	 69.720070	 12.868880	-5.157640	-0.539679	 41.155990	-16.152100	 15.796950	-102.876100	 1.895260	 7.984119	 8.957525	 15.203370	 20.318990	-6.363350	-8.239867	-2.131385	 0.447455
-0.019112	 1.254628	 0.114217	 5.117597	 0.120779	 174.280600	 175.173500	 15.816920	 37.905270	 3.199302	-31.186940	 1.611141	 53.740470	 49.044460	-69.930300	 4.912834	 28.009710	-6.307209	-165.153900	-1.941248	-29.967920	-0.529955	-6.125747	 1.803694	-51.473630	 50.284210	 49.691260	-0.405277	 31.206820	 1.661585	 1.530145	 3.633410	-14.704500	 10.909470	 10.551160	-8.489875	-9.652311	-9.208691	 25.170740	-112.403200	 2.927800	 88.286830	-12.992570	 50.390170	 36.997460	 32.968350	-1.634385	 0.854581	-24.763460	-5.636548	-94.224910	-7.830000	 12.662760	-5.879771	-7.229590	 12.628480	 2.799161	 4.963066	-4.014628	-0.346955	 1.353095	-13.664120	 1.437735	-2.387471	 8.241403	-18.275490	 108.925700	 0.827512	-88.672490	-12.777710	 69.881810	 12.740220	-5.182175	-0.562210	 41.075320	-16.589090	 15.825250	-102.928200	 1.853881	 7.872427	 8.956280	 15.203550	 20.343760	-6.370133	-8.239867	-2.131385	 0.447455
-0.019461	 1.254359	 0.113933	 5.151565	 0.067824	 174.375100	 175.127100	 15.914830	 38.016770	 3.215289	-31.313550	 1.657435	 53.802410	 49.052350	-70.022010	 4.912836	 28.009730	-6.307194	-165.023800	-1.743990	-29.871580	-0.562889	-6.503005	 1.709058	-51.712280	 50.364640	 50.049100	-0.413443	 31.216800	 1.669683	 1.554657	 3.595862	-14.699070	 11.162380	 10.665520	-8.559496	-9.940523	-9.438167	 25.120320	-112.356900	 2.869717	 88.279050	-13.269470	 50.251370	 37.046990	 33.204750	-1.642291	 0.806668	-24.402840	-5.685309	-93.766910	-7.776498	 12.706520	-5.893162	-7.229835	 12.618320	 2.797774	 4.963066	-4.014628	-0.346955	 1.305163	-13.591460	 1.462409	-2.372024	 8.356888	-18.620950	 108.867800	 0.871851	-88.694770	-12.431890	 70.033060	 12.584840	-5.210634	-0.587248	 40.986180	-16.993970	 15.853670	-102.991800	 1.807934	 7.748383	 8.954802	 15.203740	 20.371280	-6.377667	-8.239867	-2.131385	 0.447455
-0.019838	 1.254032	 0.113589	 5.179531	 0.009588	 174.480900	 175.064700	 16.022970	 38.142250	 3.233290	-31.455650	 1.708640	 53.873520	 49.062180	-70.126780	 4.912839	 28.009750	-6.307179	-164.873500	-1.502525	-29.764810	-0.604481	-6.979048	 1.605011	-52.005330	 50.472310	 50.484650	-0.422529	 31.227880	 1.678695	 1.576367	 3.559458	-14.694610	 11.394490	 10.765050	-8.624196	-10.207140	-9.649392	 25.072640	-112.305300	 2.805081	 88.270410	-13.551130	 50.125940	 37.087310	 33.425290	-1.649251	 0.752147	-24.043240	-5.743510	-93.252270	-7.716960	 12.755180	-5.908110	-7.230105	 12.607010	 2.796230	 4.963066	-4.014628	-0.346955	 1.251820	-13.510650	 1.489921	-2.352186	 8.504647	-19.011490	 108.803400	 0.921249	-88.719560	-12.026760	 70.174600	 12.395730	-5.243184	-0.614976	 40.886960	-17.372650	 15.883960	-103.065400	 1.756832	 7.610387	 8.953037	 15.203970	 20.401880	-6.386050	-8.239867	-2.131385	 0.447455
-0.020241	 1.253645	 0.113180	 5.200973	-0.053750	 174.596300	 174.985900	 16.140750	 38.280860	 3.253356	-31.613530	 1.764330	 53.954750	 49.073860	-70.245790	 4.912843	 28.009770	-6.307163	-164.708300	-1.223693	-29.649350	-0.653433	-7.537916	 1.492834	-52.346180	 50.602860	 50.987250	-0.432463	 31.239990	 1.688546	 1.594555	 3.524213	-14.689880	 11.602350	 10.849500	-8.681775	-10.448520	-9.840240	 25.028320	-112.249000	 2.734426	 88.261040	-13.835890	 50.014490	 37.118610	 33.626390	-1.654982	 0.691486	-23.685190	-5.810801	-92.683090	-7.651861	 12.808340	-5.924509	-7.230402	 12.594660	 2.794543	 4.963066	-4.014628	-0.346955	 1.193495	-13.422360	 1.520068	-2.327794	 8.684548	-19.444150	 108.733000	 0.975250	-88.746550	-11.558350	 70.304040	 12.167340	-5.278866	-0.645117	 40.778940	-17.723040	 15.917670	-103.145700	 1.700993	 7.459566	 8.950970	 15.204220	 20.435330	-6.395213	-8.239867	-2.131385	 0.447455
-0.020673	 1.253193	 0.112701	 5.215819	-0.121699	 174.721900	 174.889600	 16.267830	 38.433130	 3.275746	-31.788970	 1.824644	 54.047280	 49.088330	-70.380330	 4.912847	 28.009790	-6.307145	-164.531400	-0.911466	-29.524270	-0.709059	-8.171177	 1.372805	-52.732590	 50.753960	 51.552530	-0.443262	 31.253160	 1.699256	 1.608633	 3.490733	-14.684420	 11.786520	 10.919440	-8.731654	-10.664960	-10.010750	 24.987380	-112.187800	 2.657649	 88.250950	-14.124150	 49.916640	 37.140870	 33.806400	-1.659560	 0.624439	-23.325560	-5.887209	-92.056560	-7.581088	 12.866100	-5.942403	-7.230725	 12.581230	 2.792711	 4.963066	-4.014628	-0.346955	 1.130087	-13.326450	 1.552920	-2.298429	 8.897769	-19.919880	 108.656600	 1.033954	-88.775830	-11.018660	 70.420500	 11.892130	-5.319425	-0.677692	 40.661710	-18.045810	 15.955010	-103.230300	 1.640330	 7.295674	 8.948558	 15.204500	 20.471680	-6.405174	-8.239867	-2.131385	 0.447455
-0.021140	 1.252669	 0.112143	 5.223949	-0.194706	 174.858900	 174.774300	 16.405020	 38.600190	 3.300722	-31.983830	 1.889825	 54.152120	 49.106410	-70.531550	 4.912851	 28.009810	-6.307125	-164.344700	-0.567808	-29.389940	-0.770935	-8.873340	 1.244655	-53.165180	 50.922590	 52.180270	-0.454991	 31.267440	 1.710888	 1.618089	 3.458993	-14.677910	 11.946940	 10.975860	-8.773566	-10.856380	-10.161750	 24.949910	-112.121400	 2.574280	 88.240070	-14.418410	 49.831120	 37.154800	 33.965490	-1.662960	 0.550680	-22.960540	-5.973025	-91.367750	-7.504215	 12.928770	-5.961917	-7.231076	 12.566660	 2.790721	 4.963066	-4.014628	-0.346955	 1.061212	-13.222370	 1.588694	-2.263429	 9.146648	-20.441900	 108.573700	 1.097729	-88.807510	-10.403740	 70.523270	 11.568270	-5.362133	-0.712654	 40.534790	-18.344030	 15.998360	-103.318000	 1.574487	 7.117747	 8.945740	 15.204810	 20.511140	-6.415989	-8.239867	-2.131385	 0.447455
